<svg width="256" height="256" viewBox="0 0 256 256" fill="none" xmlns="http://www.w3.org/2000/svg">
  <defs>
    <linearGradient id="bodyG" x1="60" y1="46" x2="196" y2="214" gradientUnits="userSpaceOnUse">
      <stop stop-color="#D8F5FF"/>
      <stop offset="0.18" stop-color="#B8D9FF"/>
      <stop offset="0.52" stop-color="#9C88FF"/>
      <stop offset="0.82" stop-color="#8158FF"/>
      <stop offset="1" stop-color="#4DE1FF"/>
    </linearGradient>
    <linearGradient id="bubbleG" x1="150" y1="145" x2="220" y2="205" gradientUnits="userSpaceOnUse">
      <stop stop-color="#7C4DFF"/>
      <stop offset="1" stop-color="#FF4FD8"/>
    </linearGradient>
    <filter id="glow" x="8" y="10" width="240" height="232" filterUnits="userSpaceOnUse" color-interpolation-filters="sRGB">
      <feDropShadow dx="0" dy="12" stdDeviation="10" flood-color="#7C4DFF" flood-opacity="0.18"/>
      <feDropShadow dx="0" dy="0" stdDeviation="6" flood-color="#4DE1FF" flood-opacity="0.16"/>
    </filter>
  </defs>
  <g filter="url(#glow)">
    <path d="M128 40v20" stroke="url(#bodyG)" stroke-width="10" stroke-linecap="round"/>
    <circle cx="128" cy="32" r="10" fill="url(#bodyG)"/>
    <path d="M74 124c0-31.5 24.8-57 55.5-57S185 92.5 185 124v11c0 5.5-4.5 10-10 10H84c-5.5 0-10-4.5-10-10v-11Z" fill="url(#bodyG)"/>
    <rect x="84" y="93" width="88" height="44" rx="22" fill="#15172A"/>
    <circle cx="110" cy="115" r="8.5" fill="#9EFAFF"/>
    <circle cx="146" cy="115" r="8.5" fill="#C8B3FF"/>
    <path d="M116 127.5c6.5 4.8 17.5 4.8 24 0" stroke="#4DE1FF" stroke-width="6" stroke-linecap="round"/>
    <rect x="92" y="142" width="72" height="52" rx="30" fill="url(#bodyG)"/>
    <circle cx="128" cy="168" r="13" fill="#6EE9FF" fill-opacity="0.94"/>
    <path d="M72 108h12M172 108h12" stroke="url(#bodyG)" stroke-width="11" stroke-linecap="round"/>
    <circle cx="78" cy="108" r="10.5" fill="url(#bodyG)"/>
    <circle cx="178" cy="108" r="10.5" fill="url(#bodyG)"/>
    <path d="M165 156h33c11.6 0 21 8.7 21 19.5S209.6 195 198 195h-16.8L166 206v-11h-1c-11.6 0-21-8.7-21-19.5S153.4 156 165 156Z" fill="url(#bubbleG)"/>
    <circle cx="171" cy="176" r="4.2" fill="white"/>
    <circle cx="183" cy="176" r="4.2" fill="white"/>
    <circle cx="195" cy="176" r="4.2" fill="white"/>
  </g>
</svg>
