<svg xmlns="http://www.w3.org/2000/svg" viewBox="0 0 256 256" role="img" aria-label="Mails iNrCy">
  <defs>
    <linearGradient id="bg" x1="18" y1="30" x2="238" y2="226" gradientUnits="userSpaceOnUse">
      <stop offset="0" stop-color="#35d4ff"/>
      <stop offset="0.42" stop-color="#7c5cff"/>
      <stop offset="0.72" stop-color="#ec5aa6"/>
      <stop offset="1" stop-color="#ff9f4a"/>
    </linearGradient>
    <linearGradient id="mail" x1="58" y1="76" x2="200" y2="176" gradientUnits="userSpaceOnUse">
      <stop offset="0" stop-color="#ffffff"/>
      <stop offset="1" stop-color="#dff7ff"/>
    </linearGradient>
    <filter id="shadow" x="-30%" y="-30%" width="160%" height="160%">
      <feDropShadow dx="0" dy="12" stdDeviation="12" flood-color="#050816" flood-opacity="0.35"/>
    </filter>
  </defs>
  <circle cx="128" cy="128" r="116" fill="#071225"/>
  <circle cx="128" cy="128" r="108" fill="url(#bg)" opacity="0.96"/>
  <circle cx="128" cy="128" r="94" fill="#071225" opacity="0.18"/>
  <g filter="url(#shadow)">
    <rect x="48" y="72" width="160" height="112" rx="26" fill="url(#mail)"/>
    <path d="M62 91l58 49c5 4 11 4 16 0l58-49" fill="none" stroke="#4f46e5" stroke-width="12" stroke-linecap="round" stroke-linejoin="round" opacity="0.86"/>
    <path d="M64 166l43-39" fill="none" stroke="#16a7db" stroke-width="10" stroke-linecap="round" opacity="0.65"/>
    <path d="M192 166l-43-39" fill="none" stroke="#ec4899" stroke-width="10" stroke-linecap="round" opacity="0.65"/>
  </g>
  <rect x="78" y="149" width="100" height="34" rx="17" fill="#071225" opacity="0.82"/>
  <text x="128" y="172" text-anchor="middle" font-family="Inter, Arial, sans-serif" font-size="24" font-weight="900" fill="#ffffff" letter-spacing="-1.2">iNrCy</text>
  <circle cx="202" cy="62" r="22" fill="#071225" opacity="0.8"/>
  <path d="M192 62h20M202 52v20" stroke="#7dd3fc" stroke-width="8" stroke-linecap="round"/>
</svg>
