<svg width="128" height="128" viewBox="0 0 128 128" fill="none" xmlns="http://www.w3.org/2000/svg">
  <rect width="128" height="128" rx="28" fill="#111827"/>
  <path d="M76.2 24c4 11.1 11.2 18.4 21.8 21.2v13.7c-8-.2-14.8-2.3-20.4-6.6V80c0 15.5-12.8 28-28.7 28-13.5 0-24.9-9-28.2-21.4-4.6-17 8.5-33.6 26.2-33.6 2.4 0 4.8.3 7 1V68.5c-2.2-.7-4.6-1-7-1-8.4 0-14.7 7.9-12.4 16.4 1.6 6.1 7.2 10.3 13.6 10.3 7.5 0 13.6-5.9 13.6-13.1V24h14.5Z" fill="#F8FAFC"/>
  <path d="M70 24v57.2c0 10.2-8.3 18.5-18.5 18.5-8.7 0-16.3-6.1-18.1-14.6-2.4-10.9 5.9-21 16.8-21 2.5 0 4.7.4 6.8 1.2v-9.1c-2.2-.5-4.4-.8-6.8-.8-16.5 0-28.9 15.4-24.8 31.7C28.3 99.7 39 108 51.5 108 67.2 108 80 95.2 80 79.5V51.8c4.8 3.8 10.8 6 18 6.1v-8.9c-10.7-2.6-18.4-10.2-22.2-25H70Z" fill="#22D3EE" fill-opacity="0.95"/>
  <path d="M65.5 24v57.2c0 10.2-8.3 18.5-18.5 18.5-8.7 0-16.3-6.1-18.1-14.6-2.4-10.9 5.9-21 16.8-21 2.5 0 4.7.4 6.8 1.2v-8.2c-2.2-.7-4.5-1-6.8-1C29.2 56.1 16.8 71.5 20.9 87.8 23.8 99.7 34.5 108 47 108c15.7 0 28.5-12.8 28.5-28.5V51.8c4.8 3.8 10.8 6 18 6.1v-8.9c-10.7-2.6-18.4-10.2-22.2-25h-5.8Z" fill="#F43F5E" fill-opacity="0.9"/>
</svg>
